<svg version="1" xmlns="http://www.w3.org/2000/svg" width="2185.333" height="2185.333" viewBox="0 0 1639.000000 1639.000000"><path d="M702 340.3c-.3.3-5 .8-10.5 1.1-5.5.4-10.9.9-12 1.1-1.1.2-4.6.7-7.7 1-3.1.3-8.3 1-11.5 1.6-3.2.6-6.9 1.2-8.3 1.3-1.4.2-3.4.6-4.5.9-1.1.4-3.3.9-5 1.2-36 6.3-82.9 26.2-119 50.4-31.6 21.3-64.5 54.8-83 84.7-29.1 47-45.7 96.1-49.9 148-.4 5.6-.8 6-5.8 6.3-6.5.3-25.5 3-33.8 4.6-1.4.3-3.8.8-5.4 1.1-14.2 2.5-43.8 11.7-61.1 18.9-29.9 12.3-63.4 33-89.5 55.2-7.5 6.3-32.3 31.3-39.1 39.3-33.7 39.6-56.3 84.3-68.3 135-4.2 17.5-4.6 20-8.3 52.5-1.1 9.2-1 47.7.1 58.5.5 4.7 1 9.8 1.1 11.5.2 1.6.6 4.8.9 7 .4 2.2.9 5.8 1.1 8 1.8 14 6.5 34.3 12.7 54.4 11 35.8 30.4 72.6 54.6 103.6 11 14.1 35.6 38.6 49.8 49.5 10.9 8.5 34.9 24.6 35.6 23.9.2-.2 1.7.6 3.3 1.7 7 5 32.1 16.3 51.5 23.3 23 8.3 52.3 14.5 79 16.9 11 .9 52.3.9 62.2-.1 20.5-2 37.9-4.8 55.8-8.8 2.5-.6 5.2-1.2 6-1.4 18-3.8 54.7-17.2 77.5-28.1 41.9-20.1 90.4-53.5 134.6-92.6 3.5-3.1 7.5-6.6 8.9-7.8 15.9-13.7 82.5-79.4 129.7-127.6 62.5-64.1 81.3-83.3 103.8-105.9 24.6-24.7 45.8-45 57-54.5 2.8-2.4 5.2-4.6 5.5-4.9.3-.4 5.7-5 12-10.2 39.3-32.7 75.4-55.5 110-69.6 10.9-4.4 26.4-9.9 31-10.8.8-.2 5.7-1.3 10.8-2.4 5.1-1.2 10.9-2.4 12.9-2.7 1.9-.3 4.5-.7 5.6-1 10.1-1.9 44.9-2.6 57.7-1.2 15 1.8 30.4 5.4 45 10.8 9.3 3.4 29.3 12.9 29.8 14.2.2.4.8.8 1.3.8.6 0 3.8 1.9 7.2 4.2 38.6 26 66.3 67.7 77.1 115.9 1.4 6.3 2.8 13.6 3.2 16.4.3 2.7.8 5.2.9 5.5.2.3.7 5.3 1.1 11 1.5 19.3.7 37.5-2.3 53-2 10.9-2.5 13.5-2.5 14 0 .3-.4 1.2-.9 2.1-.4.9-1 2.7-1.2 4-.9 4.9-8.1 22.8-13.3 32.9-16.3 32.1-41.7 60.8-69.4 78.6-9.1 5.8-21.1 12-31 16.1-7.2 3-25.6 8.8-31 9.8-1.4.3-3.5.7-4.7 1-5.3 1.2-6.9 1.5-10.3 2-7.6 1-27.3 2.7-32.5 2.8-4.4 0-22.6-1.2-25.5-1.8-1.4-.2-5.5-.9-9.2-1.5-29.8-4.7-67-20.2-100.2-41.7-10.1-6.6-30.9-21.5-35.6-25.6-7.8-6.7-12.2-9.8-13.3-9.4-.7.3-10.6 8-22.2 17.2-11.5 9.2-28.2 22.3-37 29.3-8.8 6.9-16.2 12.8-16.5 13.1-.3.3-3.4 2.8-7 5.6-7.2 5.5-7.2 5.5-15.2 12l-5.7 4.7 3.2 2.6c1.8 1.5 3.7 3.2 4.2 3.8.6.5 3.9 3.5 7.5 6.5 3.6 2.9 6.7 5.6 7 5.9 1.4 1.6 30.6 24.5 38 29.9 45.7 33.3 87 55.1 129 68.3 9.6 3 34.5 9.2 41 10.2 1.9.3 4.4.7 5.5 1 2.9.5 9.3 1.5 14.5 2.1 2.5.3 6.1.8 8 1 18.5 2.3 52.9 2.3 71-.1 30-3.9 48.7-8 72.6-16 33.8-11.1 64.5-27.2 93.4-48.7 5.2-3.9 9.7-7.4 10-7.7.3-.3 3.2-2.8 6.5-5.5 8-6.6 31.6-30.2 39.1-39 19.9-23.7 32.7-42.7 44.4-66.4 5.7-11.5 8.3-17.7 15-34.6 5.8-14.8 14.5-49.1 16.5-65.4.4-3 .8-6.2 1-7.3.5-2.2 1.6-14.2 2.1-21.8 1.2-18.2.2-48.9-2.1-63-.2-1.4-.9-5.9-1.4-10-1.3-8.8-1.8-11.8-3.2-18.5-.6-2.8-1.3-6.4-1.6-8-1.1-6.5-8.4-32.6-12.3-44-6.2-17.8-10.9-29-19.7-46.2-5.6-11-16.8-29.9-19-32.1-.7-.7-1.3-1.7-1.3-2.2 0-.5-.6-1.5-1.2-2.2-.7-.7-4.7-5.8-8.8-11.3-9.2-12.4-33.2-36.6-46.4-47-30.7-24.1-68.8-43.2-110.3-55.1-14-4-39.3-9.3-52.3-11-3-.4-6.6-.8-8-1-18.5-2.6-64.5-2.5-80 .1-1.4.2-5 .7-8 1-3 .4-8.5 1.3-12.2 2.1-3.7.7-8.2 1.6-9.9 1.9-17.6 3.1-50.7 13.6-71.9 22.7-55.9 24.1-114.2 63.5-173 116.8-14.1 12.8-31 28.8-46 43.5-20.1 19.7-130.5 132-146.4 149-18.1 19.2-65.4 65.9-82.1 81-4.9 4.4-9.3 8.5-9.9 9-.6.6-6.7 5.8-13.6 11.6-48.8 41.2-94.3 68-138.2 81.3-18.6 5.6-29.5 7.6-56.8 10.2-24.5 2.4-54.7-1.9-80.5-11.3-38-13.9-71.7-41.5-91.4-74.8-8.9-15-19.9-40.5-22.6-52.1-.2-1-1.2-4.8-2-8.4-1.6-6.2-1.9-7.4-3-13-2.8-14.5-3.8-41.9-2.1-57.6 4-34.3 14.3-62.9 33.1-91.4 8.8-13.3 25.4-31.9 36.2-40.5 1.4-1.1 3.7-3 5.2-4.3 4.9-4.2 21.6-15 30.1-19.5 7.5-3.8 26.4-11.9 31-13.2.3 0 3.2-.9 6.5-1.9 3.3-1 6.9-1.9 8-2.1 1.1-.1 4.3-.8 7-1.4 18.5-4.4 54.2-5.2 72-1.6 1.7.3 5 .8 7.5 1.2 6.6.8 27.3 6.6 38.6 10.8 20.9 7.7 50.4 23.7 73 39.6 9.7 6.8 31.6 23.9 32.6 25.3.5.8 1.4.7 2.9-.2 2.1-1.3 30-23.2 30.9-24.2.3-.3 2.3-1.9 4.5-3.5 2.2-1.7 4.2-3.2 4.5-3.5.3-.3 10.2-8.2 22-17.5s22.3-17.6 23.5-18.6c1.1-.9 5.5-4.5 9.8-7.8l7.8-6.2-11.8-10c-13.4-11.5-13.2-11.3-23.3-19.5-20.3-16.5-55.5-41.2-72.8-51.2-3.5-2-7.8-4.5-9.5-5.6-13.2-7.9-59.3-28.6-63.7-28.6-2.6 0 2.2-26.4 8.3-45 4.6-14.1 13.7-32.8 21.7-44.6 13.4-19.8 29.5-35.7 49.1-48.6 24-15.8 52.5-26.6 85.4-32.3 14.6-2.5 48.1-2.5 60 0 1.1.3 3.4.6 5 .9 6.1.8 11.1 1.8 13.5 2.6 1.4.4 5.4 1.6 9 2.5 3.6 1 11.6 3.8 17.8 6.2 66 26 113.9 87.2 122.7 157 .4 2.6.8 5.9 1 7.3.2 1.4.7 5.2 1.1 8.5.3 3.3.8 6.7.9 7.5.2.8.6 4.5 1 8.2.4 3.8 1 6.8 1.2 6.8.6 0 16-9.2 55.3-33 15.7-9.5 37.5-22.7 48.5-29.3 11-6.6 20.6-12.6 21.4-13.3 1.3-1.1 1.1-2.7-.8-11.6-15.8-72.9-54.7-137.1-113.2-187.2-24.2-20.7-56.9-41-82.4-51-3.8-1.6-8.3-3.4-10-4.2-14.7-6.6-55.7-16.9-74.8-18.8-11.5-1.2-17.5-1.9-19.2-2.3-2.6-.7-46.9-1.5-47.5-1z"/></svg>
